<?xml version="1.0" standalone="no"?>
<!DOCTYPE svg PUBLIC "-//W3C//DTD SVG 20010904//EN"
 "http://www.w3.org/TR/2001/REC-SVG-20010904/DTD/svg10.dtd">
<svg version="1.0" xmlns="http://www.w3.org/2000/svg"
 width="525.000000pt" height="373.000000pt" viewBox="0 0 525.000000 373.000000"
 preserveAspectRatio="xMidYMid meet">
<metadata>
Created by potrace 1.16, written by Peter Selinger 2001-2019
</metadata>
<g transform="translate(0.000000,373.000000) scale(0.100000,-0.100000)"
fill="#000000" stroke="none">
<path d="M2856 3723 c-1 -2 -31 -5 -67 -7 -94 -7 -162 -17 -175 -27 -6 -5 -19
-7 -28 -3 -9 3 -16 1 -16 -5 0 -6 -9 -11 -19 -11 -22 0 -40 -20 -19 -21 7 0
23 -2 36 -3 12 -2 22 0 22 3 0 9 107 7 115 -1 4 -4 17 -3 27 3 14 8 23 8 31 0
13 -13 30 -15 22 -2 -3 5 0 13 6 17 6 3 15 1 19 -7 6 -9 39 -14 107 -16 129
-5 139 -6 162 -27 16 -14 23 -15 38 -5 14 8 32 9 59 3 21 -4 44 -8 49 -8 6 -1
16 -7 24 -14 8 -7 23 -11 35 -8 12 3 28 -1 37 -7 9 -7 44 -12 77 -11 34 0 62
-3 62 -7 0 -4 15 -13 33 -20 40 -15 35 -14 77 -23 19 -4 45 -19 57 -33 15 -17
36 -26 65 -30 24 -3 68 -16 98 -30 30 -14 80 -32 110 -39 30 -8 64 -19 75 -25
12 -5 27 -11 35 -13 26 -5 54 -19 72 -33 9 -8 22 -12 27 -8 6 3 11 2 11 -3 0
-5 24 -19 53 -31 93 -41 122 -55 137 -67 8 -7 52 -32 97 -56 96 -51 306 -177
381 -229 l52 -37 -62 -46 -62 -46 265 -129 c145 -71 265 -128 266 -127 1 0
-23 89 -53 196 -30 107 -64 232 -77 278 -12 45 -25 82 -30 82 -4 0 -32 -18
-62 -40 -30 -22 -58 -40 -63 -40 -5 0 -27 14 -48 31 -56 45 -200 139 -214 139
-6 0 -39 19 -73 42 -34 23 -87 55 -117 71 -71 36 -150 79 -192 104 -18 10 -55
27 -83 38 -27 10 -70 28 -95 39 -25 11 -51 19 -57 18 -7 -2 -13 2 -13 8 0 6
-4 8 -10 5 -5 -3 -10 -2 -10 3 0 5 -19 15 -42 22 -24 8 -59 21 -78 31 -19 9
-80 29 -135 44 -55 15 -131 36 -170 47 -38 10 -94 21 -123 23 -61 4 -175 21
-244 36 -26 6 -56 8 -67 4 -12 -3 -25 -4 -31 0 -9 6 -299 13 -304 8z"/>
<path d="M2460 3180 c-36 -5 -144 -16 -240 -25 -277 -24 -544 -88 -805 -192
-120 -47 -365 -167 -365 -178 0 -2 62 24 138 57 272 120 701 242 958 273 181
22 769 17 929 -8 131 -21 243 -45 264 -57 22 -13 8 -12 -82 5 -81 15 -114 19
-106 10 3 -2 63 -18 135 -34 104 -23 372 -102 470 -137 10 -4 16 -4 13 0 -3 3
-87 34 -185 67 -230 78 -270 99 -116 59 203 -51 482 -164 677 -273 200 -112
388 -237 408 -273 4 -8 22 -20 40 -28 43 -18 110 -73 96 -78 -6 -2 6 -17 27
-33 62 -46 251 -240 259 -266 5 -13 23 -42 41 -65 19 -23 34 -44 34 -48 0 -4
-30 -36 -67 -72 -38 -35 -86 -82 -108 -104 -37 -37 -64 -53 -50 -30 10 16 -1
11 -16 -7 -12 -14 -12 -16 0 -8 10 5 12 4 7 -4 -4 -6 -11 -9 -15 -6 -12 7 -76
-46 -137 -111 -54 -58 -72 -66 -69 -32 1 12 28 46 61 77 33 31 49 47 34 35
-54 -44 -130 -76 -130 -55 0 4 41 43 90 86 50 43 90 81 90 85 0 13 -221 221
-229 216 -4 -3 -33 21 -64 53 -37 38 -74 65 -104 76 -27 10 -68 35 -93 55 -68
56 -277 201 -287 199 -12 -3 -180 79 -240 117 -28 19 -57 34 -62 34 -6 0 -14
6 -18 14 -13 22 -127 65 -283 106 -141 37 -365 80 -419 80 -15 0 -31 4 -36 9
-6 5 -86 13 -179 17 l-169 7 7 -136 c3 -76 3 -137 -1 -137 -5 0 -17 -3 -28 -6
-19 -5 -20 0 -21 90 -2 135 -9 164 -41 172 -14 4 -85 2 -157 -3 -142 -11 -325
-50 -599 -128 -355 -101 -687 -273 -981 -509 -104 -83 -336 -307 -336 -324 0
-5 43 -44 95 -86 52 -42 95 -82 95 -89 -1 -7 -15 -29 -33 -49 l-32 -38 -165
132 c-91 72 -204 160 -253 195 -53 40 -85 69 -80 76 3 7 15 24 25 40 29 40 14
33 -21 -12 l-31 -39 89 -71 c49 -39 127 -111 174 -161 47 -49 91 -90 96 -90 6
0 44 -29 85 -65 41 -36 79 -65 85 -65 6 0 16 9 23 20 7 11 21 20 30 20 10 0
18 3 18 8 0 4 20 31 45 59 l45 52 -51 48 c-28 26 -65 56 -83 65 -66 34 -66 44
0 104 95 89 187 164 199 164 6 0 24 14 40 30 16 17 35 30 43 30 9 0 38 17 66
39 28 21 65 47 81 57 30 18 30 18 15 -1 -15 -19 -15 -19 15 -1 100 64 135 91
167 130 35 41 66 60 218 130 30 14 68 28 85 32 16 4 61 22 101 40 101 47 220
80 444 121 186 34 358 48 376 30 4 -4 7 -61 6 -127 l-2 -120 38 0 c20 0 80 -3
134 -6 l96 -7 7 122 c4 66 11 121 16 121 4 0 20 -5 36 -11 15 -5 75 -12 133
-14 74 -2 130 -11 189 -28 47 -14 91 -22 99 -19 10 3 13 1 8 -7 -6 -9 0 -10
21 -6 23 5 25 4 13 -5 -13 -10 -12 -11 4 -6 38 13 260 -47 391 -105 360 -159
596 -310 824 -526 l105 -99 -97 -79 c-53 -43 -97 -82 -97 -85 0 -7 124 -162
182 -229 37 -41 18 -51 225 116 281 226 463 377 466 386 5 13 -187 225 -268
297 -51 44 -125 115 -164 156 -40 41 -93 85 -119 98 -26 13 -77 48 -114 78
-36 29 -114 82 -173 118 -59 36 -114 72 -124 81 -9 10 -45 29 -81 44 -36 15
-99 44 -140 65 -214 107 -623 231 -905 274 -227 35 -535 52 -655 36z"/>
<path d="M1258 1748 c-19 -14 -22 -8 94 -160 16 -21 24 -38 19 -38 -5 0 -13 5
-16 10 -13 21 -24 9 -15 -16 16 -40 13 -50 -31 -101 -51 -59 -67 -66 -98 -42
-13 11 -32 19 -42 19 -10 0 -47 16 -82 35 -106 58 -118 48 -93 -77 19 -91 40
-131 93 -179 63 -55 134 -81 237 -87 106 -5 125 -16 261 -147 44 -42 103 -92
131 -110 28 -18 96 -72 150 -120 55 -49 169 -148 255 -222 l156 -133 6 -55
c13 -125 117 -262 232 -305 147 -54 322 20 385 163 24 54 35 148 21 174 -8 17
-5 25 22 50 31 29 123 97 158 118 10 6 50 37 91 70 40 34 159 126 263 205 105
79 195 149 200 156 6 6 48 39 93 74 76 56 86 61 108 51 67 -30 86 -20 336 182
l28 22 -55 74 c-30 41 -56 79 -58 85 -2 7 -70 -11 -175 -46 -95 -31 -172 -53
-172 -49 0 5 46 44 103 88 124 97 158 134 64 70 -38 -26 -73 -47 -78 -47 -6 0
-30 -16 -54 -36 -24 -19 -47 -34 -52 -33 -4 1 -16 -13 -26 -32 -17 -32 -18
-64 -4 -99 7 -15 -32 -44 -121 -90 -23 -12 -45 -26 -48 -31 -3 -5 -13 -9 -23
-9 -19 0 -64 -44 -74 -72 -3 -9 -19 -25 -34 -34 -15 -10 -55 -39 -88 -64 -79
-61 -260 -190 -307 -218 -20 -13 -38 -26 -40 -31 -4 -11 -209 -131 -222 -131
-6 1 -36 9 -66 20 -36 13 -82 19 -133 20 -73 0 -80 2 -105 28 -15 16 -110 101
-212 189 -102 88 -223 195 -270 238 -47 42 -145 127 -217 189 -98 82 -133 117
-133 134 0 14 -6 22 -17 22 -17 1 -17 2 -1 13 21 17 12 68 -13 74 -20 6 -26
23 -9 23 17 0 11 22 -21 72 -39 60 -110 112 -141 102 -16 -5 -20 -3 -15 9 9
24 -118 55 -145 35z"/>
</g>
</svg>
