<?xml version="1.0" standalone="no"?>
<!DOCTYPE svg PUBLIC "-//W3C//DTD SVG 20010904//EN"
 "http://www.w3.org/TR/2001/REC-SVG-20010904/DTD/svg10.dtd">
<svg version="1.0" xmlns="http://www.w3.org/2000/svg"
 width="509.000000pt" height="517.000000pt" viewBox="0 0 509.000000 517.000000"
 preserveAspectRatio="xMidYMid meet">
<metadata>
Created by potrace 1.16, written by Peter Selinger 2001-2019
</metadata>
<g transform="translate(0.000000,517.000000) scale(0.100000,-0.100000)"
fill="#000000" stroke="none">
<path d="M839 5111 c-19 -35 -38 -71 -43 -80 -6 -12 -26 -17 -83 -18 -40 -2
-82 -7 -93 -13 -10 -5 -31 -10 -46 -10 -25 0 -21 -6 52 -73 l78 -74 -16 -74
c-37 -159 -35 -167 22 -135 14 8 48 26 75 39 28 14 59 32 69 40 17 13 28 10
104 -25 46 -21 86 -37 88 -36 5 6 -37 183 -47 193 -13 13 -11 -8 5 -77 7 -32
11 -59 9 -62 -6 -5 -56 9 -80 23 -14 8 -15 11 -3 11 9 0 5 6 -10 15 -28 16
-54 20 -30 5 13 -8 13 -10 -2 -10 -9 0 -49 -16 -89 -35 -40 -19 -75 -33 -77
-30 -3 2 0 17 6 32 6 15 14 43 17 61 5 22 12 32 23 30 10 -2 18 7 22 22 8 28
-22 70 -49 70 -9 0 -22 9 -29 21 -10 16 -10 20 0 18 29 -6 108 13 108 25 0 8
6 19 14 25 8 7 17 27 20 46 9 45 19 44 41 -5 10 -22 24 -45 32 -52 14 -12 163
-28 163 -18 0 3 -29 14 -64 25 l-65 20 -16 57 c-10 38 -20 55 -28 52 -8 -3
-20 9 -29 28 l-15 33 -34 -64z"/>
<path d="M1660 5010 c-7 -16 -16 -30 -21 -30 -4 0 -14 -10 -21 -23 -37 -65
-62 -97 -76 -98 -30 -2 -86 1 -124 7 -31 5 -41 1 -62 -21 -19 -20 -34 -26 -70
-27 -26 0 -48 -4 -51 -8 -2 -3 36 -46 85 -95 50 -48 90 -92 90 -97 0 -4 6 -8
14 -8 24 0 27 -31 6 -60 -11 -16 -18 -35 -15 -42 3 -8 -2 -37 -11 -64 -9 -27
-18 -78 -19 -114 -1 -36 -5 -75 -9 -88 -7 -19 13 -12 154 58 l161 80 37 -24
c68 -42 251 -137 282 -146 l30 -9 0 45 c0 25 -5 54 -10 64 -6 11 -17 59 -25
107 -8 48 -20 105 -27 126 l-12 38 113 113 113 113 -98 12 c-180 22 -275 28
-271 17 5 -14 54 -24 157 -31 46 -4 92 -11 103 -16 16 -9 13 -16 -32 -68 -59
-68 -81 -88 -81 -73 0 6 5 14 10 17 6 3 10 11 10 18 0 6 -20 -9 -45 -33 -25
-24 -45 -49 -45 -54 0 -5 14 3 30 19 31 30 42 25 14 -6 -15 -16 -14 -27 4
-131 11 -62 21 -117 22 -123 1 -5 2 -21 1 -34 -1 -23 -1 -23 -28 -5 -15 9 -36
25 -46 35 -11 9 -31 20 -45 24 -14 3 -32 15 -39 25 -8 11 -20 17 -28 14 -8 -4
-15 -1 -15 5 0 7 7 14 15 17 28 11 15 30 -36 54 -50 24 -50 24 -86 5 -19 -11
-38 -25 -40 -32 -3 -7 -11 -13 -18 -13 -7 0 -15 -7 -19 -15 -3 -8 -14 -15 -24
-15 -10 0 -23 -5 -30 -12 -16 -16 -26 -4 -13 19 6 10 14 54 19 97 l9 79 -51
52 c-28 29 -61 55 -72 59 -12 4 -29 15 -39 26 -20 22 -25 20 100 40 39 7 78
14 88 17 19 5 64 94 94 185 17 55 13 75 -7 28z"/>
<path d="M2450 4527 c-79 -157 -113 -211 -123 -200 -4 3 -7 1 -7 -5 0 -6 -24
-47 -54 -91 -30 -44 -52 -82 -49 -85 9 -9 -26 -92 -47 -111 -11 -10 -20 -25
-20 -34 0 -9 -11 -38 -25 -66 -14 -27 -22 -39 -19 -25 3 14 -15 -11 -41 -55
-26 -44 -48 -93 -49 -110 -3 -31 -42 -105 -56 -105 -20 0 -18 49 5 99 33 70
32 72 -10 18 -19 -25 -38 -47 -43 -49 -5 -1 -41 -66 -81 -143 l-73 -141 -197
-32 c-108 -18 -197 -37 -199 -42 -2 -6 -37 -10 -79 -10 -60 0 -88 -6 -141 -29
-60 -25 -91 -30 -280 -47 -116 -10 -212 -22 -212 -26 0 -4 -15 -8 -34 -8 -19
0 -64 -7 -101 -15 -69 -16 -345 -28 -310 -14 14 6 9 7 -15 3 -19 -3 -71 -10
-114 -17 l-80 -12 60 -56 c48 -46 282 -257 521 -470 22 -20 42 -41 44 -46 4
-9 169 -161 273 -251 33 -29 72 -63 86 -76 14 -13 67 -55 117 -95 51 -40 93
-77 93 -82 0 -6 23 -34 51 -64 l50 -53 -26 -139 c-15 -76 -31 -185 -35 -243
-12 -136 -31 -266 -80 -525 -21 -116 -58 -313 -80 -440 -23 -126 -44 -241 -47
-254 -5 -22 18 -12 223 94 249 128 857 448 1129 594 184 99 173 97 266 50 74
-37 371 -160 376 -155 4 3 -18 15 -186 93 -51 24 -135 71 -187 104 -92 60 -94
61 -131 49 -21 -7 -46 -21 -55 -31 -24 -25 -216 -119 -220 -108 -2 6 -28 -4
-58 -20 -30 -16 -75 -37 -100 -47 -25 -10 -59 -29 -75 -43 -17 -14 -73 -42
-125 -61 -52 -19 -99 -38 -105 -43 -17 -14 -278 -137 -291 -137 -6 0 -32 -12
-57 -26 -25 -14 -52 -24 -59 -23 -7 2 -36 -9 -65 -24 -57 -29 -68 -32 -58 -17
11 18 -11 10 -30 -10 -29 -32 -48 -26 -42 12 10 67 36 194 46 223 5 17 12 66
15 110 3 44 27 195 55 335 27 140 52 282 56 315 4 33 20 112 35 175 16 63 34
143 41 178 11 60 11 64 -11 87 -13 13 -26 22 -30 20 -10 -6 -439 444 -511 535
-28 36 -57 72 -66 80 -12 13 -13 13 -7 -5 13 -34 -131 101 -209 195 -39 49
-79 91 -87 95 -8 3 -2 -9 15 -27 16 -18 7 -11 -21 15 -28 27 -69 59 -90 73
-22 13 -37 24 -34 25 3 0 21 2 40 4 19 1 197 25 395 53 198 28 520 70 715 92
201 24 360 47 366 53 11 11 292 523 341 622 11 22 68 131 127 243 58 112 106
210 106 218 0 17 76 170 88 178 8 5 147 -247 147 -267 0 -7 17 -38 37 -69 21
-31 61 -101 89 -155 29 -54 82 -152 119 -218 37 -66 116 -211 175 -323 59
-111 112 -205 117 -208 13 -8 553 -78 758 -99 137 -14 619 -70 777 -92 l43 -5
-232 -239 c-127 -131 -238 -249 -247 -261 -15 -22 525 469 562 510 19 20 19
21 -15 26 -18 3 -82 10 -143 16 -129 11 -353 44 -410 58 -58 16 -308 47 -650
82 -448 46 -406 38 -433 88 -13 23 -22 48 -19 55 2 7 13 -3 23 -21 11 -19 24
-40 29 -47 12 -16 155 -32 155 -17 0 5 -30 13 -68 17 l-67 7 -110 206 c-113
215 -185 342 -185 330 0 -4 40 -85 89 -180 83 -161 137 -278 126 -278 -6 0
-133 228 -247 445 -317 604 -382 732 -383 754 0 17 -7 25 -22 27 -13 2 -23 -1
-24 -9 0 -7 -3 -6 -7 3 -5 10 -32 -35 -82 -133z"/>
<path d="M2635 3396 c-11 -16 -195 -96 -220 -96 -9 0 -19 9 -22 21 -8 28 -42
19 -111 -28 -54 -37 -262 -247 -262 -264 0 -6 -31 -45 -69 -88 -226 -257 -325
-537 -326 -926 l0 -180 37 -77 c64 -134 226 -281 416 -377 64 -32 64 -32 138
-20 91 15 96 32 14 48 -85 17 -79 36 8 25 85 -11 266 -11 358 -1 l71 9 42 -71
c87 -147 218 -254 290 -236 32 8 122 101 178 185 l43 63 -23 41 c-12 22 -68
87 -124 144 -60 60 -103 111 -103 123 0 10 29 57 64 103 167 219 254 452 277
741 15 183 6 324 -24 408 -59 161 -211 304 -454 426 -87 43 -111 49 -131 29
-9 -9 -15 -9 -24 0 -16 16 -31 15 -43 -2z m105 -161 c0 -3 -7 -16 -16 -29 -19
-31 -3 -43 28 -22 29 21 108 22 108 2 0 -10 -29 -21 -89 -35 -100 -24 -119
-25 -156 -11 -25 9 -25 11 -10 40 8 16 28 36 43 44 26 15 92 22 92 11z m74
-217 c24 -7 59 -30 84 -55 l42 -42 0 -100 c0 -202 -58 -387 -191 -610 -29 -47
-53 -88 -55 -90 -2 -2 -47 8 -100 23 -74 21 -99 24 -110 15 -11 -9 -14 -7 -14
10 0 16 -6 21 -29 21 -55 0 -55 -17 0 -146 l50 -119 -53 -50 c-85 -79 -147
-108 -244 -113 -79 -4 -81 -4 -117 28 -20 17 -51 62 -69 98 -30 61 -33 76 -37
177 -3 98 0 119 24 190 14 44 53 134 85 200 50 102 74 137 157 230 242 270
428 377 577 333z m414 -280 c10 -70 8 -85 -37 -316 -26 -133 -51 -245 -54
-249 -19 -18 -18 18 1 120 31 159 41 239 48 387 8 150 24 172 42 58z m-213 43
c9 -16 -13 -253 -29 -306 -14 -46 -66 -115 -87 -115 -4 0 -1 19 7 43 28 79 73
262 80 325 6 58 15 75 29 53z"/>
<path d="M3917 1898 c-13 -24 -39 -72 -57 -108 -42 -81 -39 -77 -51 -60 -8 11
-9 7 -5 -17 3 -18 1 -35 -4 -38 -13 -8 -113 -182 -130 -225 -8 -19 -36 -73
-63 -120 -306 -524 -528 -933 -527 -969 0 -3 16 21 34 54 19 33 46 71 60 84
14 14 26 30 26 36 0 7 23 43 50 81 28 38 50 72 50 76 0 12 142 218 150 218 4
0 13 14 20 30 7 17 18 30 25 30 16 0 35 44 35 84 0 21 14 54 38 92 21 32 41
67 45 77 10 26 166 287 193 323 13 17 24 36 24 43 0 6 23 43 51 81 48 66 79
88 79 55 0 -8 25 -49 55 -91 30 -42 55 -80 55 -84 0 -4 36 -68 79 -143 44 -74
141 -249 216 -388 137 -254 187 -340 251 -434 19 -27 34 -57 34 -66 0 -9 9
-24 20 -34 27 -25 61 -83 51 -89 -4 -3 -179 -10 -387 -16 -438 -12 -785 -28
-793 -36 -3 -4 210 -5 474 -3 264 3 458 2 430 -2 -28 -3 10 -6 90 -6 117 1
126 2 55 6 l-85 6 79 8 c43 4 110 7 147 7 l68 0 -31 53 c-17 28 -39 64 -49 79
-10 14 -20 32 -21 39 -2 6 -19 42 -39 79 -20 37 -42 88 -50 114 -7 25 -16 46
-20 46 -10 0 -50 68 -65 109 -7 19 -20 38 -28 43 -18 10 -21 38 -5 38 7 0 18
-8 26 -17 12 -16 13 -15 7 12 -7 34 -151 275 -164 275 -4 0 -13 13 -18 29 -6
16 -19 34 -29 39 -10 6 -34 43 -53 84 -19 40 -42 81 -51 91 -21 23 -34 51 -54
117 -9 30 -23 62 -30 70 -19 22 -131 203 -150 244 -10 20 -21 36 -25 36 -5 0
-19 -19 -33 -42z"/>
<path d="M3911 1347 c-8 -10 -9 -17 -1 -22 5 -3 10 -18 10 -33 0 -19 -3 -23
-9 -13 -6 9 -11 10 -15 2 -4 -6 -11 -9 -15 -6 -8 4 -21 -49 -21 -87 0 -34 19
-18 22 19 2 20 9 38 17 41 10 3 12 -5 6 -39 -11 -70 -15 -83 -28 -70 -6 6 -15
11 -19 11 -12 0 -10 -68 2 -75 6 -3 10 -27 9 -53 -1 -45 -1 -46 -9 -14 -14 60
-23 48 -17 -22 8 -83 42 -160 74 -164 13 -2 24 -13 27 -28 7 -25 46 -35 46
-11 0 6 9 1 19 -12 16 -21 19 -22 25 -6 3 10 -1 43 -11 74 -29 93 -18 307 23
459 5 18 0 25 -30 37 -59 25 -91 28 -105 12z"/>
<path d="M3900 693 c-23 -9 -50 -35 -50 -49 0 -7 6 -11 13 -8 10 3 12 -5 9
-31 -4 -32 -2 -35 22 -35 28 0 35 -17 11 -26 -21 -9 -19 -24 5 -24 10 0 42 5
70 11 52 11 65 30 33 48 -10 6 -12 11 -5 11 17 0 15 23 -5 65 -11 22 -22 34
-31 30 -7 -2 -10 0 -7 5 7 11 -39 12 -65 3z"/>
</g>
</svg>
