<?xml version="1.0" standalone="no"?>
<!DOCTYPE svg PUBLIC "-//W3C//DTD SVG 20010904//EN"
 "http://www.w3.org/TR/2001/REC-SVG-20010904/DTD/svg10.dtd">
<svg version="1.0" xmlns="http://www.w3.org/2000/svg"
 width="667.000000pt" height="388.000000pt" viewBox="0 0 667.000000 388.000000"
 preserveAspectRatio="xMidYMid meet">
<metadata>
Created by potrace 1.16, written by Peter Selinger 2001-2019
</metadata>
<g transform="translate(0.000000,388.000000) scale(0.100000,-0.100000)"
fill="#000000" stroke="none">
<path d="M3326 3817 c-19 -35 -51 -97 -70 -137 -19 -40 -41 -80 -49 -89 -23
-26 -100 -162 -122 -216 -12 -27 -76 -142 -142 -255 -188 -321 -454 -818 -453
-848 0 -4 14 18 31 48 16 30 41 66 54 80 13 14 35 46 49 71 13 26 32 56 43 68
10 12 29 41 43 65 39 67 83 135 110 171 14 18 32 43 40 56 8 12 25 33 37 46
32 33 54 79 47 97 -3 8 9 41 28 72 18 31 49 86 68 123 56 104 149 261 177 297
13 18 26 39 27 47 2 18 103 157 113 157 5 0 15 -14 23 -30 8 -17 32 -56 53
-88 75 -112 226 -380 447 -797 29 -55 81 -143 116 -195 34 -53 66 -108 69
-123 4 -15 15 -33 24 -40 28 -20 63 -87 48 -92 -6 -2 -192 -9 -412 -15 -443
-12 -766 -27 -774 -36 -3 -4 212 -5 479 -3 267 3 463 2 435 -2 -29 -3 9 -6 90
-6 123 1 129 1 50 6 l-90 6 79 8 c43 4 112 7 152 7 l73 0 -35 57 c-19 31 -34
61 -34 66 0 6 -7 15 -15 21 -8 6 -17 20 -19 31 -2 11 -20 49 -40 83 -20 35
-36 70 -36 77 0 21 -30 85 -39 85 -6 0 -13 10 -17 23 -3 12 -13 30 -22 40 -8
9 -12 17 -8 17 10 0 -23 59 -46 82 -27 27 -6 38 22 13 19 -17 19 -17 10 16
-11 38 -120 222 -156 264 -13 16 -24 34 -24 41 0 8 -10 20 -23 29 -13 8 -39
47 -57 87 -19 40 -37 75 -40 78 -26 24 -58 90 -59 123 -1 13 -27 59 -105 185
-42 67 -76 126 -76 130 0 4 -9 20 -19 35 l-18 29 -37 -65z"/>
<path d="M3330 3271 c-7 -13 -7 -22 0 -26 5 -3 10 -18 9 -33 0 -24 -1 -25 -9
-7 -7 18 -8 19 -15 3 -4 -10 -10 -16 -14 -13 -17 10 -43 -167 -29 -190 12 -20
21 -110 10 -100 -6 6 -12 28 -15 50 -2 25 -4 14 -5 -31 -1 -39 3 -86 10 -105
16 -49 48 -91 64 -85 9 3 16 -4 20 -19 4 -18 13 -25 30 -25 13 0 24 6 25 13 0
6 4 2 9 -10 5 -13 14 -23 19 -23 18 0 17 35 -2 95 -16 50 -18 80 -14 180 3 66
14 159 25 208 11 48 16 89 13 91 -7 4 -114 46 -118 46 -1 0 -7 -9 -13 -19z"/>
<path d="M3320 2609 c-47 -19 -78 -59 -45 -59 10 0 15 -11 15 -35 0 -31 3 -35
25 -35 30 0 33 -16 4 -25 -14 -5 -18 -10 -11 -17 15 -15 142 11 142 29 0 8 -7
16 -15 19 -11 5 -13 10 -5 19 14 17 -16 95 -36 95 -8 0 -14 5 -14 10 0 12 -27
12 -60 -1z"/>
<path d="M1200 2191 c0 -5 -17 -15 -37 -22 -45 -14 -129 -91 -137 -124 -4 -14
-12 -24 -19 -22 -23 4 -13 -93 16 -155 32 -67 73 -102 147 -124 49 -14 59 -14
108 0 100 28 155 81 176 169 9 38 0 34 -24 -12 -10 -22 -32 -48 -47 -60 -15
-11 -35 -27 -43 -34 -28 -26 -58 -37 -102 -37 -34 0 -55 8 -99 40 -66 46 -89
88 -88 157 0 66 34 130 87 168 38 26 52 30 112 30 61 0 73 -3 115 -33 34 -24
43 -27 35 -13 -19 37 -200 102 -200 72z"/>
<path d="M2178 1672 c-43 -1 -78 -7 -78 -11 0 -5 -7 -12 -16 -15 -12 -5 -15
-2 -10 10 10 26 -15 11 -48 -29 l-30 -37 -2 -418 c-3 -467 -2 -474 67 -523
l34 -24 580 -2 c392 -1 591 1 615 9 44 13 79 44 96 85 28 66 23 66 -103 13
-52 -22 -99 -37 -105 -34 -6 4 -8 3 -5 -3 8 -12 -20 -26 -34 -17 -5 3 -9 1 -9
-4 0 -5 -6 -9 -12 -9 -7 -1 -29 -4 -48 -8 -80 -17 -21 11 298 141 17 7 32 18
32 25 0 6 -6 9 -12 6 -7 -3 -109 -44 -226 -91 -161 -65 -218 -84 -231 -77 -10
6 -29 7 -42 4 -54 -13 2 16 116 61 66 26 153 61 194 77 56 22 77 26 85 18 8
-9 6 -10 -9 -5 -15 5 -17 4 -9 -4 8 -8 18 -8 38 1 18 9 23 15 14 20 -17 10
-10 15 32 23 35 7 35 7 10 -8 -14 -9 -20 -15 -14 -16 5 0 19 7 30 15 10 8 16
15 12 15 -4 0 -3 11 2 25 5 14 8 25 6 25 -1 0 -68 -27 -147 -60 -79 -33 -150
-58 -157 -55 -7 3 -11 1 -8 -4 9 -14 -23 -22 -44 -11 -28 15 -36 12 -14 -6 10
-8 14 -13 7 -9 -7 3 -27 -1 -44 -10 -17 -9 -28 -12 -24 -5 4 7 -8 5 -30 -4
-20 -9 -42 -13 -49 -9 -6 4 -4 -2 4 -12 14 -17 14 -18 -10 -5 -24 13 -24 12
-10 -5 14 -17 14 -18 -10 -5 -21 11 -23 11 -13 -1 9 -11 6 -14 -14 -16 -19 -1
-22 1 -12 8 8 5 10 9 4 9 -14 0 -43 -20 -30 -20 6 0 2 -5 -8 -11 -9 -5 -22 -7
-27 -4 -6 3 -10 2 -10 -4 0 -6 -7 -7 -17 -4 -9 4 -14 2 -11 -3 4 -5 -27 -10
-73 -10 -44 -1 -78 0 -77 1 5 5 131 55 137 55 3 -1 -5 -7 -19 -15 -35 -20 -18
-19 24 2 19 9 32 21 29 26 -3 6 -1 7 4 4 6 -4 59 13 119 38 337 136 519 214
522 225 3 8 -3 10 -19 5 -31 -10 -305 -119 -604 -243 -220 -90 -246 -99 -310
-100 -87 -2 -88 -2 153 95 435 174 730 285 741 279 3 -3 17 1 30 8 15 8 20 16
13 20 -7 4 -20 2 -31 -4 -11 -5 -27 -7 -37 -3 -12 4 -15 3 -10 -5 5 -8 1 -10
-10 -5 -12 4 -15 3 -10 -5 5 -8 1 -10 -10 -5 -12 4 -15 3 -10 -5 4 -8 2 -10
-8 -6 -8 3 -29 -2 -46 -11 -18 -9 -34 -15 -36 -12 -9 8 137 66 153 60 12 -5
14 -3 8 7 -6 10 -4 12 9 7 11 -5 15 -3 10 5 -5 7 -2 9 8 6 8 -4 15 -1 15 7 0
9 -26 2 -81 -22 -45 -19 -105 -44 -133 -55 -29 -11 -51 -24 -48 -28 2 -4 -7
-12 -21 -19 -35 -16 -44 -13 -14 4 14 8 21 14 15 14 -14 0 -62 -28 -50 -29 12
-1 -36 -29 -50 -29 -5 0 1 6 15 14 39 23 17 17 -49 -11 -33 -15 -59 -29 -57
-33 2 -3 -10 -7 -27 -7 -17 -1 -33 -6 -35 -13 -2 -6 -8 -9 -13 -5 -5 3 -9 0
-9 -6 0 -6 -4 -9 -10 -5 -14 9 -161 -56 -153 -68 3 -6 1 -7 -5 -3 -12 7 -172
-48 -306 -105 -77 -33 -109 -38 -56 -9 47 26 34 25 -25 -1 -51 -22 -135 -23
-157 -1 -18 18 61 47 149 55 11 1 19 6 15 11 -3 5 2 7 11 3 10 -4 210 72 489
184 260 104 477 190 483 192 5 1 16 8 24 15 7 7 20 11 28 8 9 -4 11 -2 7 6 -5
8 -2 9 9 5 21 -8 49 2 41 14 -3 5 0 9 7 9 7 0 10 2 7 5 -8 8 -39 -6 -33 -15 3
-4 -5 -8 -18 -8 -24 1 -327 -112 -520 -193 -67 -28 -165 -66 -217 -84 -52 -19
-126 -47 -163 -64 -79 -35 -98 -39 -47 -10 46 26 33 22 -148 -51 -110 -44
-157 -59 -165 -51 -7 7 -2 13 19 21 16 7 92 36 169 65 77 29 156 60 175 68 19
8 44 18 55 22 11 5 25 7 30 6 6 -1 5 3 -1 9 -9 9 -20 8 -44 -5 -17 -9 -34 -15
-36 -12 -2 2 14 12 36 22 31 14 43 16 52 7 7 -7 16 -12 22 -12 5 0 1 7 -10 15
-22 17 -12 20 16 5 14 -8 30 -6 57 5 20 9 43 13 50 10 9 -3 11 0 7 7 -5 8 -2
9 9 5 10 -3 17 -2 17 4 0 6 4 8 9 4 6 -3 34 6 63 19 49 23 196 81 506 201
l122 47 0 169 c0 184 -6 215 -54 259 -27 24 -34 25 -194 30 -92 3 -198 1 -237
-3 -65 -8 -612 -4 -645 5 -8 2 -50 2 -92 0z m720 -28 c-6 -5 -324 -136 -440
-181 -39 -15 -65 -30 -61 -36 4 -6 1 -7 -6 -3 -18 11 -175 -55 -159 -67 9 -6
6 -7 -10 -4 -12 3 -20 2 -17 -3 6 -10 -43 -23 -57 -14 -7 5 -8 2 -3 -6 6 -9 2
-10 -15 -5 -12 4 -20 3 -17 -1 3 -5 -5 -9 -16 -10 -12 0 -30 -4 -41 -9 -14 -6
-18 -5 -14 6 3 8 34 26 69 41 35 14 69 31 75 36 7 6 15 8 18 5 3 -4 6 -1 6 6
0 8 7 11 18 6 12 -4 14 -3 7 4 -8 8 -36 0 -94 -24 -88 -37 -101 -41 -101 -26
0 5 36 24 80 42 43 18 77 36 74 41 -3 4 3 5 13 1 16 -6 16 -5 5 9 -12 14 -9
19 15 33 33 19 23 16 -80 -24 -43 -17 -82 -31 -88 -31 -5 0 -9 16 -9 36 0 30
4 37 31 46 16 6 28 12 26 14 -2 3 -16 0 -31 -6 -21 -8 -27 -7 -24 2 7 21 138
68 188 67 62 -1 123 12 135 28 6 7 26 15 45 18 l35 5 -40 -13 c-34 -12 -36
-14 -17 -19 12 -4 43 2 69 12 62 23 159 25 167 3 5 -13 4 -13 -8 -4 -16 13
-70 -5 -60 -21 3 -5 0 -8 -7 -7 -20 4 -97 -20 -104 -31 -4 -6 -11 -8 -16 -5
-5 4 -9 2 -9 -4 0 -6 -6 -8 -14 -5 -7 3 -20 -1 -27 -9 -8 -7 -20 -12 -28 -9
-9 3 -11 0 -6 -8 6 -10 4 -12 -8 -7 -10 4 -25 10 -34 13 -15 5 -16 4 -3 -6 12
-9 11 -10 -9 -5 -16 5 -21 4 -17 -4 5 -7 1 -8 -10 -4 -11 4 -15 3 -10 -5 3 -6
-1 -15 -10 -20 -11 -6 -13 -11 -5 -16 6 -4 11 -3 11 3 0 6 7 7 17 4 12 -5 14
-3 8 7 -6 10 -4 12 9 7 9 -4 15 -3 12 2 -3 5 4 9 17 9 37 0 74 11 167 51 49
21 92 36 95 33 3 -4 3 2 -1 13 -7 17 -6 18 8 7 11 -9 23 -10 42 -2 38 14 46
12 16 -5 -30 -17 -21 -20 14 -4 14 7 23 16 20 20 -3 5 2 6 10 3 8 -3 25 0 38
7 13 8 50 16 83 20 33 3 66 7 74 7 8 1 12 -1 9 -4z m87 -18 c-20 -12 -32 -25
-28 -30 4 -4 -1 -4 -11 0 -12 5 -17 4 -13 -3 8 -12 -130 -77 -183 -86 -35 -6
-35 -6 -10 8 30 17 21 20 -14 4 -14 -7 -23 -16 -20 -20 3 -5 -7 -14 -21 -19
-37 -14 -44 -12 -15 5 35 20 24 18 -50 -9 -36 -14 -64 -30 -62 -36 1 -6 -2 -8
-8 -5 -13 8 -70 -13 -70 -26 0 -5 -7 -6 -15 -3 -8 3 -31 -3 -50 -15 -20 -11
-48 -23 -63 -25 -26 -5 -63 -21 -220 -94 -50 -23 -77 -31 -84 -24 -18 18 -1
29 89 57 49 15 133 48 187 72 54 24 110 45 124 48 14 2 70 24 126 48 56 25
163 68 238 97 76 29 135 57 132 61 -3 5 3 6 12 2 10 -3 15 -2 12 3 -3 5 7 9
23 10 l30 1 -36 -21z m185 -28 c-36 -17 -71 -31 -77 -31 -7 0 -13 -4 -13 -9 0
-5 -5 -6 -12 -2 -7 5 -8 3 -3 -6 6 -9 2 -10 -15 -5 -17 5 -21 4 -15 -6 6 -9 3
-11 -9 -6 -11 4 -15 3 -10 -4 4 -7 0 -9 -12 -5 -11 3 -26 1 -34 -5 -12 -8 -9
-9 10 -4 22 5 23 4 7 -5 -10 -7 -25 -9 -33 -6 -18 7 -65 -14 -58 -25 3 -5 -3
-6 -12 -2 -13 5 -15 3 -9 -7 5 -8 3 -11 -6 -8 -8 3 -36 -5 -63 -18 -27 -12
-55 -20 -64 -17 -9 4 -13 2 -9 -4 9 -14 -18 -24 -40 -16 -11 4 -14 3 -9 -5 5
-8 1 -10 -11 -5 -17 5 -17 5 -2 -12 16 -16 33 -10 324 114 170 73 315 130 324
128 9 -2 -11 -16 -47 -32 -34 -15 -61 -30 -58 -32 2 -2 33 9 69 26 57 25 68
27 78 15 6 -8 9 -17 6 -21 -3 -3 -73 -33 -154 -68 -129 -53 -257 -115 -213
-102 25 8 169 66 268 108 98 41 112 45 112 30 0 -17 -404 -166 -421 -155 -8 5
-9 3 -4 -6 6 -10 4 -12 -7 -7 -9 3 -82 -21 -163 -54 -135 -54 -188 -78 -175
-79 4 0 252 97 298 117 6 3 12 0 12 -5 0 -6 -9 -14 -21 -17 -11 -4 -18 -9 -16
-12 3 -2 28 7 56 22 29 14 57 23 63 19 7 -5 8 -2 3 6 -6 10 -4 12 8 7 10 -3
17 -2 17 4 0 6 5 7 10 4 6 -3 10 -1 10 5 0 6 4 9 9 6 5 -3 35 6 67 20 33 15
82 34 109 44 28 10 74 27 103 39 42 17 52 18 52 6 0 -8 -42 -34 -100 -61 -55
-26 -98 -49 -96 -51 2 -3 19 3 36 12 58 30 160 65 160 55 0 -12 -56 -41 -64
-33 -3 4 -6 1 -6 -6 0 -7 -4 -9 -10 -6 -5 3 -10 1 -10 -5 0 -6 -4 -8 -10 -5
-5 3 -17 2 -26 -3 -10 -6 -12 -12 -6 -16 5 -3 35 5 66 19 31 14 58 25 59 25 1
0 4 -11 5 -25 1 -14 -4 -25 -11 -25 -7 0 -8 -3 -2 -8 6 -4 11 -14 13 -23 1
-12 -21 -25 -83 -49 -47 -18 -85 -35 -85 -37 0 -7 60 8 105 27 58 25 65 25 65
1 0 -15 -37 -35 -181 -96 -100 -42 -213 -88 -253 -102 -39 -14 -76 -30 -81
-34 -6 -4 -81 -35 -168 -69 -86 -34 -157 -63 -157 -64 0 -2 13 -3 30 -3 16 0
27 4 24 9 -3 4 3 5 12 1 13 -5 15 -3 9 7 -5 8 -4 11 2 7 6 -4 42 6 79 22 184
78 566 235 622 256 74 29 82 16 12 -20 -27 -14 -50 -23 -50 -19 0 3 -7 -2 -16
-11 -9 -9 -23 -14 -31 -11 -9 4 -11 2 -7 -6 5 -8 2 -9 -9 -5 -10 3 -17 2 -17
-4 0 -6 -4 -7 -10 -4 -5 3 -10 2 -10 -2 0 -5 -8 -9 -18 -10 -9 -1 -52 -17 -94
-36 -42 -19 -87 -38 -100 -42 -67 -19 -257 -99 -252 -106 3 -5 -1 -6 -8 -4 -8
3 -42 -6 -76 -20 -49 -20 -67 -23 -83 -15 -16 9 -43 2 -142 -38 -162 -66 -177
-73 -171 -83 3 -5 -1 -6 -9 -3 -7 2 -50 -11 -95 -29 -78 -34 -103 -37 -82 -12
8 9 6 14 -5 19 -20 7 -19 33 3 45 13 8 14 11 2 11 -11 0 -10 4 5 17 16 13 17
15 3 10 -14 -5 -17 -1 -14 15 3 24 83 60 549 253 37 15 66 29 64 32 -3 2 -20
-3 -38 -11 -19 -8 -117 -49 -219 -91 -102 -42 -222 -93 -268 -112 -45 -20 -85
-33 -89 -29 -4 4 -1 11 7 16 8 6 10 10 4 10 -7 0 -14 7 -18 15 -6 16 -3 18
232 115 98 41 148 66 140 72 -10 6 -10 8 1 8 8 0 12 3 8 6 -3 3 -14 1 -24 -5
-14 -8 -15 -11 -3 -11 12 0 11 -3 -3 -11 -10 -6 -25 -8 -33 -5 -8 3 -13 2 -10
-2 2 -4 -30 -21 -72 -37 -42 -16 -110 -44 -150 -62 -79 -35 -92 -39 -92 -23 0
11 70 45 208 100 45 18 81 35 79 37 -2 2 -66 -22 -142 -52 -76 -31 -140 -53
-143 -50 -4 3 -2 13 4 23 10 15 54 34 344 151 168 68 335 139 431 184 52 25
104 48 117 52 13 4 21 9 18 12 -2 3 -58 -19 -123 -47 -64 -29 -147 -63 -183
-77 -36 -13 -85 -33 -110 -45 -25 -11 -81 -34 -125 -50 -44 -16 -90 -34 -102
-40 -13 -6 -25 -9 -28 -6 -3 2 68 35 158 72 89 37 179 75 199 83 30 13 36 19
27 30 -13 15 -33 18 -24 3 4 -6 -1 -7 -11 -3 -13 5 -15 3 -9 -7 5 -9 4 -11 -4
-6 -7 5 -50 -8 -96 -28 -46 -20 -91 -36 -99 -36 -9 0 -16 -5 -16 -11 0 -13 23
-6 108 32 72 33 95 38 41 9 -52 -27 -408 -175 -444 -184 -57 -14 -17 5 140 68
87 35 154 66 149 69 -5 3 -40 -8 -78 -24 -77 -33 -76 -33 -76 -18 0 5 5 7 10
4 6 -3 10 -1 10 6 0 7 3 10 6 6 4 -3 23 1 43 9 20 9 108 45 196 81 88 35 171
70 185 78 84 43 498 204 525 204 6 0 -19 -14 -55 -31z m-550 -188 c-391 -158
-571 -227 -576 -218 -3 4 10 15 28 22 18 8 78 33 133 56 92 38 380 147 485
183 105 37 64 12 -70 -43z"/>
<path d="M3816 1672 c-40 -2 -78 -9 -92 -19 -13 -8 -24 -11 -24 -5 0 6 6 13
13 16 6 3 3 5 -8 3 -10 -1 -32 -21 -48 -43 -24 -34 -29 -52 -29 -100 -3 -729
-2 -780 20 -823 12 -23 34 -44 63 -59 l44 -24 582 5 c557 4 584 5 620 25 22
11 37 26 37 36 -1 9 2 13 7 11 11 -7 29 28 29 55 0 19 -4 21 -31 15 -17 -4
-60 -20 -95 -37 -35 -16 -69 -26 -75 -22 -7 4 -9 3 -6 -3 8 -12 -20 -26 -34
-17 -5 3 -9 0 -9 -6 0 -6 -4 -8 -10 -5 -5 3 -10 2 -10 -2 0 -5 -8 -9 -17 -9
-10 -1 -31 -5 -48 -9 -69 -18 -2 17 155 80 91 37 169 71 174 76 28 26 -21 10
-223 -71 -174 -70 -228 -87 -242 -79 -10 5 -30 7 -44 3 -63 -16 -10 10 170 81
171 68 197 76 212 64 16 -13 17 -12 5 2 -10 14 -10 18 4 23 9 3 20 4 25 0 5
-3 9 0 9 5 0 6 3 10 8 9 13 -4 82 23 82 32 0 5 3 15 6 23 7 19 -28 40 -51 31
-24 -10 4 -25 30 -18 50 15 -2 -9 -148 -69 -89 -38 -165 -63 -174 -60 -11 4
-14 2 -9 -5 5 -8 1 -10 -10 -5 -13 5 -15 3 -9 -7 5 -9 4 -11 -3 -6 -6 4 -26
-1 -44 -10 -28 -14 -31 -15 -20 -2 11 14 9 14 -22 0 -19 -9 -32 -20 -29 -25 3
-5 -5 -3 -18 4 -23 12 -23 11 -9 -6 14 -17 14 -18 -10 -5 -24 13 -24 12 -10
-5 14 -17 14 -17 -7 -7 -26 14 -36 15 -29 4 6 -10 -62 -44 -74 -37 -11 7 -41
-5 -36 -14 2 -3 -32 -7 -77 -7 l-82 -2 44 20 c25 10 51 16 58 13 8 -2 12 -1 9
4 -3 4 6 13 20 20 35 16 44 13 14 -4 -30 -17 -21 -20 14 -4 14 7 23 16 19 22
-3 6 -2 7 4 4 5 -3 70 19 144 49 74 30 185 75 246 100 62 25 110 50 107 55 -3
5 1 7 8 4 22 -8 143 41 146 60 3 14 0 15 -17 6 -17 -10 -121 -12 -121 -4 0 8
76 33 87 28 8 -2 11 0 8 5 -4 6 6 8 24 6 35 -4 37 1 15 32 -11 15 -12 22 -3
22 7 0 10 3 7 6 -3 3 -64 -19 -135 -49 -117 -49 -135 -54 -207 -55 -44 -1 -75
2 -70 6 5 5 70 32 144 62 74 29 140 57 146 62 6 4 14 5 17 1 4 -3 7 -1 7 6 0
8 6 11 16 7 10 -4 13 -2 8 6 -5 8 -2 9 10 5 11 -4 15 -3 10 4 -4 7 0 9 12 5
20 -6 38 2 41 20 2 10 -181 -57 -434 -157 -85 -34 -145 -40 -73 -7 25 11 149
60 275 110 127 49 234 93 238 97 5 5 4 12 -2 15 -5 4 -38 -7 -71 -24 -33 -17
-66 -28 -72 -24 -7 5 -8 2 -3 -6 6 -10 4 -12 -8 -7 -10 3 -17 2 -17 -4 0 -6
-4 -7 -10 -4 -5 3 -10 2 -10 -2 0 -5 -8 -9 -17 -10 -10 -1 -52 -17 -93 -36
-41 -19 -86 -37 -100 -42 -14 -4 -71 -25 -127 -48 -56 -22 -106 -37 -110 -33
-9 9 18 27 29 20 4 -3 8 -1 8 4 0 5 6 9 13 9 7 0 51 16 98 35 91 39 376 158
449 188 l45 19 3 91 c4 116 -11 222 -35 254 -39 53 -54 56 -274 53 -350 -3
-783 -2 -814 3 -16 3 -61 4 -99 2z m709 -32 c-3 -5 -11 -10 -17 -10 -10 0
-189 -71 -545 -217 -62 -25 -110 -50 -107 -54 3 -5 2 -9 -3 -10 -4 -1 -21 -3
-38 -5 -16 -1 -54 -7 -83 -12 -66 -11 -58 -4 36 33 39 15 72 32 72 37 0 5 5 6
10 3 6 -3 10 -1 10 5 0 7 7 9 18 5 12 -4 14 -3 7 4 -7 7 -40 -2 -105 -29 -52
-21 -96 -37 -98 -35 -11 10 16 27 98 61 70 29 88 40 79 50 -8 9 -3 17 18 29
34 20 23 16 -91 -29 -49 -20 -93 -36 -98 -36 -4 0 -8 16 -8 35 0 30 5 36 43
55 23 11 34 18 24 15 -90 -25 -88 -9 3 25 33 12 59 24 57 27 -3 2 -28 -6 -57
-17 -29 -11 -55 -19 -57 -16 -9 9 8 26 25 26 14 0 15 2 2 10 -11 7 -3 14 34
29 52 23 66 25 66 13 0 -5 -18 -14 -41 -21 -23 -7 -39 -14 -36 -17 2 -2 16 0
31 6 32 12 59 13 53 3 -11 -17 230 1 276 21 43 17 143 17 158 0 8 -10 9 -14 0
-14 -6 0 -11 5 -11 10 0 6 -5 10 -11 10 -8 0 -7 -5 1 -15 7 -9 18 -14 24 -12
6 2 22 7 36 11 19 5 16 2 -10 -13 -50 -28 -33 -26 36 6 50 23 104 35 187 42
10 0 15 -3 12 -9z m102 -6 c-15 -8 -25 -19 -23 -23 7 -10 -162 -89 -205 -96
-17 -3 -44 -12 -60 -20 -36 -19 -52 -19 -19 0 30 17 21 20 -14 4 -14 -7 -23
-16 -20 -20 3 -5 -1 -6 -8 -4 -18 7 -94 -20 -91 -33 1 -5 -6 -8 -16 -5 -10 2
-24 -2 -32 -10 -8 -7 -19 -12 -26 -10 -6 2 -38 -9 -71 -26 -33 -17 -62 -28
-65 -25 -3 3 -19 -2 -36 -10 -32 -17 -62 -22 -45 -8 19 17 156 72 165 67 5 -4
9 -2 9 3 0 5 6 9 13 9 6 0 66 23 132 51 157 68 417 171 430 171 6 0 -3 -7 -18
-15z m373 -45 c0 -4 -19 -14 -42 -24 -95 -37 -319 -138 -315 -142 2 -2 31 7
63 21 211 87 294 118 306 113 7 -2 -9 -14 -37 -27 -96 -42 -376 -141 -384
-136 -5 3 -35 -6 -66 -20 -41 -18 -71 -24 -104 -22 l-46 3 60 32 c75 40 67 42
-16 4 -72 -33 -124 -47 -115 -32 4 6 -3 15 -15 22 -20 10 -21 9 -15 -7 6 -15
5 -17 -5 -6 -19 18 -33 14 -18 -5 12 -16 12 -17 -2 -5 -12 9 -24 10 -44 2 -15
-6 -29 -9 -31 -7 -2 2 47 25 109 52 61 26 159 68 217 93 211 90 438 167 300
101 -36 -17 -71 -32 -77 -32 -7 0 -13 -4 -13 -8 0 -5 -7 -5 -17 -2 -12 5 -14
3 -8 -7 6 -10 4 -12 -9 -7 -11 4 -15 3 -10 -4 4 -7 0 -9 -12 -5 -11 3 -26 1
-34 -5 -12 -8 -9 -9 10 -4 22 5 23 4 7 -5 -10 -7 -25 -9 -33 -6 -10 4 -12 2
-8 -6 5 -8 2 -9 -9 -5 -22 8 -49 -2 -40 -16 4 -6 0 -8 -11 -4 -11 4 -15 3 -10
-4 4 -8 -1 -9 -16 -4 -17 5 -21 4 -15 -6 5 -8 5 -11 1 -7 -4 3 -32 -5 -62 -18
-31 -13 -60 -21 -66 -18 -7 5 -8 2 -3 -6 6 -10 4 -12 -8 -7 -10 3 -17 2 -17
-3 0 -5 -8 -7 -17 -3 -17 5 -17 5 -1 -12 16 -17 28 -13 275 93 142 61 281 120
308 130 l50 20 23 -21 c12 -11 22 -24 22 -28z m20 -73 c0 -8 -40 -33 -90 -57
-102 -48 -117 -64 -19 -20 84 37 109 45 109 32 0 -13 -55 -42 -64 -34 -3 4 -6
1 -6 -6 0 -7 -4 -9 -10 -6 -5 3 -10 2 -10 -4 0 -6 -8 -8 -17 -4 -14 5 -15 3
-7 -6 9 -10 18 -10 40 2 66 33 71 32 71 -16 0 -42 -1 -44 -27 -43 -16 1 -27 3
-25 6 5 8 -177 3 -209 -5 -23 -6 -27 -5 -21 5 6 9 4 11 -5 5 -26 -16 -124 -15
-142 2 -11 10 -18 12 -18 5 0 -7 -10 -12 -22 -12 -21 1 -21 2 6 16 22 12 30
13 36 4 6 -9 13 -9 29 -1 12 7 26 9 31 6 6 -3 10 -1 10 5 0 6 5 8 10 5 6 -3
10 -2 10 4 0 6 7 7 17 4 9 -4 14 -2 10 3 -3 5 2 10 11 11 16 1 175 62 252 96
45 20 50 20 50 3z m3 -207 c7 -25 -21 -39 -299 -149 -99 -39 -187 -75 -196
-81 -45 -24 -221 -89 -241 -89 -22 1 -22 1 3 15 30 17 18 20 -13 4 -11 -7 -53
-13 -92 -15 l-70 -4 85 35 c47 20 136 54 198 77 61 22 112 45 112 50 0 5 4 6
10 3 5 -3 17 -2 26 3 11 6 13 11 5 16 -6 4 -11 2 -11 -4 0 -6 -4 -9 -8 -6 -5
3 -69 -20 -143 -50 -226 -92 -322 -126 -372 -131 -30 -2 -47 0 -43 6 4 6 -7 6
-30 -1 -20 -5 -38 -8 -40 -6 -3 4 193 90 304 134 24 9 41 18 39 21 -2 2 -91
-33 -197 -77 -152 -63 -206 -81 -258 -85 -36 -3 -76 -8 -89 -11 -13 -4 -23 -2
-23 3 0 4 74 39 165 77 90 39 163 72 161 74 -4 3 -71 -23 -278 -108 -37 -15
-48 -17 -48 -6 0 7 48 33 113 60 225 95 257 109 254 113 -2 2 -35 -10 -73 -26
-38 -17 -103 -43 -144 -60 -41 -16 -92 -36 -112 -45 -37 -16 -38 -16 -38 4 0
22 6 26 155 85 50 20 162 65 249 101 109 44 172 64 200 64 l41 -1 -35 -19
c-45 -24 -34 -25 22 -2 36 15 72 19 212 19 116 1 165 -2 155 -9 -10 -7 -9 -8
6 -2 11 5 52 9 90 10 39 1 86 4 105 8 33 6 34 6 12 -7 -45 -26 -9 -24 56 3 37
16 68 29 68 29 1 1 4 -8 7 -20z m-1083 -363 c0 -2 -34 -16 -75 -31 -42 -15
-74 -30 -71 -33 3 -2 18 0 33 7 15 6 39 13 53 16 14 3 49 14 77 26 33 13 60
18 70 14 10 -5 22 -7 27 -6 30 7 107 8 111 1 3 -4 -50 -30 -118 -58 -67 -27
-173 -71 -235 -97 -62 -27 -115 -45 -119 -42 -3 4 -8 30 -9 57 -3 41 0 50 14
51 15 1 15 2 1 6 -32 8 -8 39 49 64 39 17 78 25 125 27 37 1 67 0 67 -2z m330
-20 c19 -1 50 2 69 6 62 12 17 -12 -95 -52 -60 -21 -135 -50 -168 -64 -70 -31
-84 -33 -36 -5 47 27 31 22 -158 -56 -117 -49 -166 -65 -174 -57 -8 8 -4 14
13 21 75 32 416 163 427 163 7 1 9 5 4 10 -5 5 -25 1 -46 -7 -21 -9 -40 -14
-42 -12 -8 8 142 65 156 59 8 -3 31 -6 50 -6z m239 4 c12 -6 29 -5 49 2 24 10
33 9 46 -4 14 -15 14 -17 -1 -22 -9 -4 -18 -4 -21 -1 -3 3 1 5 8 5 7 0 11 2 8
5 -5 5 -108 -34 -118 -45 -3 -3 -11 -5 -17 -6 -30 -2 -34 -5 -28 -14 3 -5 -2
-9 -12 -7 -17 2 -116 -35 -378 -140 -136 -55 -150 -60 -141 -45 5 9 0 9 -19 2
-34 -13 -105 -13 -105 0 0 5 -7 7 -15 4 -9 -4 -15 0 -15 9 0 14 75 48 115 53
77 8 130 25 285 89 301 126 325 134 359 115z m204 -6 c-17 -7 -34 -18 -38 -23
-3 -6 20 1 51 15 31 14 69 24 83 22 27 -3 11 -10 -439 -196 -193 -79 -222 -88
-284 -90 -39 -1 -65 2 -60 7 5 5 131 56 279 115 149 59 302 120 340 136 70 28
129 41 68 14z"/>
<path d="M5282 1654 c-54 -38 -55 -45 -58 -494 -3 -471 -2 -475 72 -521 l39
-24 590 3 c452 3 597 7 621 17 34 14 69 57 79 98 10 37 -13 36 -99 -3 -37 -17
-72 -28 -78 -24 -7 5 -8 2 -3 -6 6 -10 4 -12 -8 -7 -10 3 -17 2 -17 -4 0 -6
-4 -7 -10 -4 -5 3 -10 2 -10 -4 0 -6 -7 -7 -17 -4 -10 4 -14 2 -9 -5 4 -6 -1
-11 -11 -10 -10 0 -33 -5 -50 -10 -18 -6 -35 -7 -37 -3 -3 4 78 40 179 81 166
67 209 90 173 90 -6 0 -108 -39 -226 -86 -184 -75 -218 -85 -235 -75 -10 7
-17 9 -14 4 3 -5 -10 -9 -29 -9 -19 0 -34 1 -34 2 0 7 445 182 480 189 32 6
60 25 60 40 0 8 -4 15 -9 15 -6 0 -73 -27 -151 -60 -81 -34 -148 -56 -157 -53
-12 5 -14 3 -8 -7 6 -10 4 -12 -8 -7 -10 3 -17 2 -17 -4 0 -6 -8 -5 -21 2 -14
7 -19 7 -15 0 7 -11 -52 -46 -62 -37 -3 3 -1 6 4 6 6 0 19 7 30 15 10 9 -2 6
-28 -7 -26 -12 -45 -25 -42 -30 3 -4 -7 -3 -21 2 -19 7 -24 7 -19 -2 5 -8 2
-9 -10 -5 -9 4 -15 3 -12 -1 6 -10 -64 -46 -72 -37 -3 3 1 5 8 5 7 0 11 2 8 5
-9 10 -38 -7 -31 -18 3 -6 1 -7 -5 -3 -6 4 -20 2 -30 -3 -26 -14 -102 -22
-102 -11 0 6 -10 6 -25 0 -14 -5 -25 -6 -25 -2 0 12 119 54 131 46 8 -5 9 -3
4 6 -6 10 -4 12 9 7 11 -4 15 -3 10 4 -4 8 1 9 16 4 17 -5 21 -4 15 5 -5 8 -4
11 2 7 5 -3 56 13 114 37 57 24 194 80 303 125 224 92 218 89 211 101 -6 10
-65 -11 -65 -23 0 -4 -4 -6 -9 -3 -9 6 -121 -38 -578 -228 -128 -53 -238 -96
-243 -96 -6 0 -8 5 -4 12 4 6 3 8 -3 5 -18 -11 -109 -19 -98 -9 14 14 732 302
879 352 32 11 62 17 67 14 5 -3 9 0 9 6 0 6 5 8 10 5 6 -3 10 -2 10 4 0 6 7 8
15 5 9 -4 15 0 15 9 0 10 -7 13 -19 10 -10 -3 -22 1 -27 8 -5 9 -2 10 10 6 10
-4 15 -3 11 3 -3 6 -1 10 6 10 7 0 10 2 7 5 -4 4 -195 -72 -263 -105 -18 -9
-17 -9 5 -5 14 3 1 -6 -29 -20 -63 -29 -81 -32 -31 -5 57 31 29 23 -77 -24
-55 -24 -117 -49 -137 -56 -20 -6 -34 -16 -31 -21 4 -5 -2 -8 -12 -6 -16 2
-150 -48 -403 -150 -96 -39 -145 -52 -120 -33 12 10 12 11 -5 5 -50 -18 -89
-23 -117 -14 -17 4 -35 6 -39 3 -5 -3 -9 1 -9 9 0 18 65 48 87 41 14 -5 15 -4
4 4 -11 8 -9 10 10 9 13 -1 35 2 49 7 20 6 22 5 10 -4 -13 -10 -12 -11 3 -6
10 3 21 6 23 6 3 0 2 4 -1 10 -3 5 0 8 7 5 7 -2 231 83 498 191 267 107 491
196 498 196 6 1 12 6 12 11 0 5 7 6 16 3 10 -4 13 -2 8 6 -5 8 -2 9 10 5 11
-4 15 -3 10 4 -4 8 1 9 17 4 17 -4 20 -3 10 3 -7 5 -9 12 -5 14 30 16 -253
-93 -491 -189 -88 -36 -218 -86 -290 -112 -71 -26 -144 -55 -162 -64 -50 -27
-53 -19 -3 9 52 29 40 26 -45 -9 -248 -105 -308 -128 -318 -118 -6 6 -9 12 -6
15 2 2 85 34 184 71 99 37 202 78 229 91 27 13 53 21 59 17 6 -4 7 -1 2 7 -6
10 -4 12 9 7 9 -4 34 0 54 8 20 9 42 13 49 10 9 -3 11 0 7 7 -5 7 0 9 14 6 14
-4 20 -2 15 5 -4 7 0 8 11 4 9 -4 15 -3 11 3 -3 5 3 9 12 8 10 0 137 47 283
105 146 57 293 115 328 128 42 16 62 29 62 41 0 14 -6 13 -45 -8 -24 -14 -50
-22 -56 -18 -8 5 -9 3 -4 -6 6 -10 4 -12 -9 -7 -11 5 -15 3 -10 -5 5 -8 2 -9
-9 -5 -10 4 -17 2 -17 -4 0 -6 -7 -9 -15 -5 -8 3 -21 -2 -30 -10 -8 -9 -15
-13 -15 -10 0 2 -46 -16 -102 -40 -57 -25 -110 -47 -120 -49 -9 -2 -97 -36
-197 -75 -147 -59 -183 -69 -198 -60 -16 10 -16 11 5 7 14 -3 20 -1 15 6 -4 7
0 8 11 4 11 -5 15 -3 10 5 -5 8 -2 9 9 5 22 -8 49 2 40 16 -3 5 -1 7 4 4 6 -4
36 5 66 19 31 13 64 27 74 29 10 2 65 23 123 48 267 114 369 156 418 173 l53
19 -3 156 c-3 147 -4 158 -28 192 -13 20 -36 41 -50 48 -18 9 -118 11 -370 9
-431 -4 -448 -4 -655 4 -143 5 -174 4 -190 -9 -26 -19 -41 -19 -25 0 16 20 0
19 -28 -1z m846 -19 c-1 -2 -34 -15 -73 -29 -38 -15 -128 -51 -200 -80 -71
-30 -187 -78 -257 -106 -79 -32 -125 -56 -121 -63 4 -6 0 -8 -11 -4 -9 4 -15
3 -11 -2 7 -12 -51 -25 -66 -15 -8 5 -9 3 -4 -6 6 -10 4 -12 -9 -7 -11 4 -15
3 -10 -4 4 -8 -1 -9 -16 -4 -17 5 -21 4 -15 -5 5 -8 4 -11 -3 -6 -6 3 -22 2
-37 -4 -22 -8 -26 -7 -23 6 2 9 34 28 76 44 40 15 79 33 86 39 7 6 16 8 19 4
4 -3 7 -1 7 6 0 7 4 10 9 7 5 -4 11 -1 13 5 2 5 16 12 31 13 31 4 58 23 32 23
-8 0 -15 -4 -15 -9 0 -5 -4 -7 -8 -4 -5 3 -62 -17 -127 -45 -65 -27 -120 -48
-122 -45 -11 11 11 24 102 61 79 32 94 41 81 50 -13 10 -10 14 19 28 31 15 34
15 40 -1 3 -9 9 -12 13 -7 4 6 13 10 20 11 29 2 33 5 27 14 -9 14 8 13 23 -2
9 -9 12 -9 12 0 0 7 3 11 8 10 14 -5 102 34 97 43 -4 5 1 6 9 3 8 -3 30 2 48
11 34 18 57 23 118 29 19 2 55 13 80 24 28 12 67 20 103 20 32 0 57 -1 55 -3z
m94 -13 c-18 -10 -29 -21 -25 -25 4 -5 -1 -5 -11 -1 -13 5 -17 4 -12 -4 5 -8
1 -10 -10 -5 -12 4 -15 3 -10 -5 5 -8 1 -10 -10 -5 -11 4 -15 2 -11 -4 7 -11
-98 -63 -129 -63 -11 -1 -30 -7 -44 -15 -14 -8 -29 -14 -35 -14 -5 0 1 6 15
14 14 8 21 14 15 14 -14 0 -63 -28 -50 -29 13 0 -16 -20 -30 -20 -5 0 -3 5 5
10 27 18 0 10 -81 -21 -43 -18 -79 -36 -79 -40 0 -9 -53 -39 -67 -39 -4 1 8 9
27 19 34 19 34 19 8 18 -16 -1 -28 -4 -28 -7 0 -10 -45 -33 -68 -36 -12 -1
-52 -16 -87 -33 -36 -16 -65 -28 -65 -25 0 3 -16 -4 -35 -16 -19 -12 -35 -18
-35 -13 0 4 -4 3 -8 -3 -9 -15 -79 -44 -86 -36 -18 17 3 33 82 58 48 15 137
49 197 75 61 25 117 47 125 47 8 0 60 20 115 45 55 25 162 68 237 97 76 29
135 57 132 61 -3 5 2 6 10 3 8 -3 23 -1 33 5 10 6 25 10 33 10 8 0 0 -8 -18
-17z m-812 -7 c-9 -11 -9 -15 -1 -15 7 0 10 -3 8 -7 -6 -9 86 -8 163 1 43 6
52 5 40 -4 -17 -13 -12 -12 70 20 59 23 156 24 164 3 5 -13 4 -14 -9 -3 -13
11 -14 10 -9 -6 6 -16 5 -17 -7 -6 -16 14 -33 16 -24 2 4 -6 -1 -7 -11 -3 -10
4 -15 2 -11 -3 3 -5 -6 -11 -21 -12 -37 -3 -112 -33 -112 -44 0 -5 -4 -7 -9
-4 -12 8 -42 -4 -36 -14 3 -5 -16 -7 -42 -5 -45 3 -46 2 -23 -12 16 -9 18 -12
5 -7 -32 11 -44 8 -158 -37 -59 -23 -110 -39 -113 -36 -4 3 -4 21 0 40 4 24
14 36 34 44 l27 12 -29 -6 c-45 -9 -24 12 39 37 31 12 54 25 51 27 -2 2 -27
-6 -55 -18 -29 -12 -54 -19 -57 -16 -10 9 6 27 24 27 9 0 24 5 32 10 11 8 7 9
-15 4 -16 -4 -27 -3 -22 1 12 14 81 43 101 44 15 1 16 -2 6 -14z m1147 1 c-4
-10 -1 -13 7 -10 12 4 44 -23 35 -29 -2 -2 -60 -27 -129 -56 -69 -30 -145 -65
-170 -78 -65 -35 -49 -29 203 73 66 26 107 38 107 31 0 -12 -65 -40 -292 -122
-71 -26 -128 -51 -128 -56 0 -6 -10 -5 -22 2 -22 11 -22 10 -7 -6 15 -15 19
-15 46 -1 17 8 33 12 37 9 3 -4 6 -1 6 5 0 6 7 9 17 5 12 -5 14 -3 8 7 -6 10
-4 12 8 7 10 -4 17 -1 17 5 0 6 3 9 6 5 3 -3 27 3 52 14 89 38 255 99 260 95
11 -12 -19 -32 -119 -78 -60 -28 -108 -53 -106 -55 2 -1 49 18 106 43 103 46
139 53 107 21 -10 -9 -22 -15 -27 -12 -5 4 -9 2 -9 -4 0 -6 -8 -8 -17 -4 -14
5 -15 3 -7 -6 9 -10 17 -10 32 -2 26 14 35 14 27 1 -3 -5 -1 -10 4 -10 20 0
11 -19 -16 -35 l-28 -15 27 6 c22 5 26 2 24 -13 -2 -13 -28 -28 -89 -52 -48
-19 -86 -36 -84 -37 5 -5 71 13 122 34 l51 20 2 -22 c1 -20 -20 -31 -201 -106
-111 -45 -258 -106 -327 -135 -69 -28 -149 -60 -177 -70 -37 -13 -49 -22 -40
-28 8 -6 6 -7 -6 -3 -20 6 -218 -74 -211 -86 3 -4 -2 -5 -10 -2 -8 3 -23 1
-33 -6 -16 -9 -15 -10 7 -5 14 3 1 -6 -29 -20 -63 -29 -81 -32 -31 -5 50 27
32 24 -31 -5 -30 -14 -43 -23 -29 -20 21 5 22 4 7 -5 -9 -6 -21 -8 -27 -5 -5
3 -48 -10 -96 -30 -98 -39 -109 -41 -101 -20 4 8 2 17 -3 20 -14 9 -12 45 3
45 9 0 8 3 -2 9 -11 7 -10 11 5 20 11 6 13 11 7 11 -7 0 -13 8 -13 18 0 17 51
40 598 270 45 19 81 36 79 38 -2 3 -35 -9 -73 -25 -277 -119 -599 -249 -604
-245 -3 3 4 12 15 21 20 15 20 15 -2 8 -18 -5 -23 -2 -23 12 0 14 34 32 143
77 180 75 229 98 197 90 -29 -8 -190 -71 -273 -108 -67 -30 -67 -30 -67 -13 0
12 74 46 298 138 56 23 101 43 99 45 -2 3 -288 -111 -384 -153 -8 -3 -13 3
-13 14 0 22 17 30 235 119 261 106 500 207 565 239 36 18 98 44 138 60 40 15
71 29 69 31 -2 3 -46 -13 -98 -35 -52 -21 -146 -60 -209 -86 -63 -25 -144 -59
-180 -75 -117 -52 -302 -120 -290 -108 7 8 339 148 350 148 5 0 30 11 57 24
26 13 125 57 218 97 468 200 441 189 432 165z m-172 -31 c-38 -18 -74 -31 -79
-28 -5 3 -6 2 -3 -4 4 -6 -5 -15 -19 -22 -30 -13 -45 -14 -24 -1 8 5 11 10 5
10 -14 0 -43 -20 -30 -20 13 -1 -36 -29 -50 -29 -5 0 1 6 15 14 14 8 21 14 15
14 -14 0 -63 -28 -50 -29 6 0 3 -5 -5 -10 -8 -5 -23 -7 -34 -4 -13 4 -16 3
-11 -6 5 -8 4 -11 -3 -7 -5 4 -33 -4 -61 -19 -28 -14 -56 -22 -63 -18 -7 5 -8
3 -3 -6 6 -9 2 -10 -15 -5 -15 5 -20 4 -16 -4 5 -7 1 -8 -10 -4 -11 4 -15 2
-11 -4 9 -14 -18 -24 -40 -16 -11 4 -14 3 -9 -5 5 -8 1 -10 -11 -5 -16 6 -17
5 -3 -13 11 -15 11 -16 0 -6 -17 14 -34 16 -25 2 4 -6 -1 -7 -11 -3 -12 4 -15
3 -10 -5 4 -7 2 -10 -7 -7 -7 3 -39 -6 -70 -20 -31 -13 -57 -23 -57 -20 0 2
-37 -11 -82 -31 -45 -19 -85 -31 -90 -26 -4 4 0 8 10 9 15 0 312 119 407 163
167 77 478 198 510 199 6 0 -21 -15 -60 -34z m-386 -119 c-2 -2 -105 -45 -229
-94 -514 -205 -500 -200 -500 -183 0 4 91 45 203 89 321 128 548 209 526 188z"/>
<path d="M1095 1641 c-73 -34 -105 -77 -123 -166 -9 -44 -8 -170 7 -764 1 -13
3 -22 6 -19 3 2 8 65 11 139 3 74 10 161 15 194 5 38 5 63 -1 69 -14 14 -13
335 1 377 33 96 100 138 221 139 135 0 190 -38 207 -142 5 -29 12 -223 16
-430 l7 -377 -89 -4 -88 -3 98 -2 99 -2 -2 108 c-2 59 1 115 5 125 4 11 2 29
-5 42 -10 19 -12 79 -7 272 4 137 7 255 7 263 0 13 1 13 10 0 8 -12 10 -10 10
10 0 41 -35 106 -74 135 -43 32 -84 43 -202 50 -74 4 -96 2 -129 -14z"/>
<path d="M248 1329 c-45 -73 -152 -256 -196 -335 l-52 -91 0 -295 0 -295 31
-7 c17 -3 69 -6 114 -6 l83 0 17 55 c10 30 22 55 27 55 6 0 7 -8 3 -17 -40
-98 -41 -182 -3 -260 48 -97 209 -159 319 -122 135 46 211 226 148 352 -23 45
-76 107 -93 107 -6 0 -24 8 -41 17 -22 12 -55 17 -121 17 -83 1 -94 -1 -133
-27 -52 -35 -66 -29 -18 7 82 63 189 71 284 22 65 -33 130 -106 145 -164 l11
-44 191 7 c105 4 194 9 199 12 4 2 7 13 7 24 0 56 62 141 125 171 71 35 117
41 185 23 35 -9 83 -30 107 -46 56 -39 56 -48 1 -12 -39 25 -51 28 -133 27
-100 0 -158 -20 -209 -71 -82 -81 -93 -224 -25 -323 70 -102 187 -136 306 -88
70 28 112 60 138 103 26 42 32 176 11 235 -21 61 -14 60 14 0 l24 -51 45 3 46
3 2 100 c1 55 6 101 11 103 5 1 8 58 6 135 -2 73 -4 242 -5 376 0 227 -4 287
-14 195 -10 -97 -15 -205 -21 -414 -3 -124 -10 -229 -15 -234 -5 -6 -9 -37
-10 -70 0 -34 -4 -69 -8 -79 -6 -15 -10 -12 -29 21 -12 22 -40 56 -62 76 l-41
37 3 342 3 342 65 7 c71 8 114 17 109 23 -6 5 -186 35 -214 35 -24 0 -25 -3
-26 -57 0 -32 -2 -69 -3 -83 -1 -14 -3 -145 -4 -291 l-2 -266 -87 -8 c-49 -4
-202 -9 -340 -11 l-253 -3 -2 117 c0 64 0 195 0 290 1 94 -2 172 -7 172 -8 0
-17 -174 -25 -476 l-3 -132 208 -7 207 -7 -53 -52 c-29 -29 -58 -69 -66 -89
l-13 -37 -147 0 -146 0 -18 47 c-43 113 -166 187 -310 187 -70 0 -88 -4 -141
-31 -70 -36 -126 -91 -155 -150 -11 -24 -24 -45 -29 -48 -4 -3 -29 -2 -54 1
l-46 7 0 252 0 251 31 55 c17 30 68 117 114 194 l83 140 254 6 c151 3 261 10
273 16 15 9 3 12 -61 17 -43 3 -128 10 -189 16 -60 5 -156 12 -212 16 -99 6
-102 5 -115 -17z m288 -968 c52 -23 74 -55 74 -103 0 -71 -50 -125 -113 -120
-21 1 -77 40 -77 53 0 5 -9 18 -20 29 -11 11 -20 30 -20 43 0 40 68 116 105
116 6 1 29 -8 51 -18z m981 -25 c43 -41 52 -87 24 -115 -12 -12 -21 -26 -21
-31 0 -16 -62 -50 -92 -50 -40 0 -56 9 -78 46 -27 43 -29 108 -4 136 26 29 95
59 119 52 11 -3 35 -20 52 -38z"/>
<path d="M4055 600 c-154 -3 -256 -6 -227 -8 28 -1 52 -6 52 -10 0 -4 -24 -21
-52 -36 -64 -35 -100 -74 -129 -143 -36 -85 -46 -71 -48 64 l-2 91 28 6 c16 3
35 5 43 4 8 -1 33 0 55 2 24 2 5 6 -50 10 -49 4 -91 6 -92 6 -1 -1 -3 -60 -4
-131 l-1 -130 37 0 c35 0 38 2 56 49 52 137 205 206 357 161 66 -20 145 -97
169 -166 l18 -49 81 0 81 0 11 38 c18 59 73 124 133 157 47 26 64 30 134 30
87 0 127 -14 186 -65 60 -52 69 -64 87 -112 13 -38 20 -46 37 -43 11 2 28 4
38 4 14 1 17 10 16 64 -1 34 -4 76 -8 92 -6 28 -7 27 -14 -19 -4 -27 -7 -62
-7 -77 0 -37 -17 -37 -30 -1 -19 50 -35 76 -72 116 -21 21 -38 40 -38 41 0 1
23 5 50 8 67 8 82 18 45 31 -40 13 -590 22 -940 16z m323 -47 l142 -6 -42 -41
c-24 -23 -55 -64 -69 -91 -15 -28 -31 -50 -38 -49 -6 1 -23 2 -38 3 -23 1 -33
11 -57 57 -17 32 -48 70 -75 92 -71 55 -70 55 -16 48 28 -3 114 -9 193 -13z"/>
<path d="M5655 600 c-148 -3 -249 -7 -222 -8 26 -1 47 -6 47 -10 0 -5 -25 -22
-56 -38 -30 -16 -67 -45 -82 -64 -30 -38 -61 -98 -62 -117 0 -18 -17 -16 -24
3 -3 9 -6 55 -6 104 l0 88 28 6 c15 3 34 5 42 4 8 -1 33 0 55 2 24 2 4 6 -50
9 -49 4 -91 6 -91 6 -1 0 -3 -58 -5 -130 l-4 -130 35 -3 c35 -3 37 -1 58 51
25 61 86 127 140 153 53 25 148 30 214 10 46 -13 66 -27 110 -74 32 -36 59
-75 66 -100 l13 -42 83 0 84 0 6 30 c8 40 58 113 99 143 87 65 214 74 304 21
65 -38 127 -104 143 -153 11 -35 17 -41 34 -37 12 3 28 6 37 6 13 0 15 11 13
63 -2 34 -4 80 -5 102 l-1 40 -9 -40 c-4 -22 -8 -61 -8 -87 -1 -61 -23 -64
-40 -7 -7 23 -32 63 -57 89 -24 26 -44 49 -44 52 0 3 25 9 55 13 30 3 57 10
59 14 19 29 -375 42 -959 31z m323 -47 l142 -6 -38 -33 c-21 -18 -53 -59 -70
-91 -31 -59 -31 -59 -74 -57 -40 2 -43 4 -55 41 -14 41 -52 86 -113 136 l-35
29 50 -6 c28 -4 114 -9 193 -13z"/>
<path d="M2200 591 l54 -6 -26 -17 c-15 -10 -31 -18 -37 -18 -5 0 -31 -20 -59
-45 -46 -42 -55 -56 -82 -129 -19 -53 -35 -14 -36 89 -1 93 0 94 25 99 14 3
33 5 41 4 8 -1 33 0 55 2 25 2 9 6 -45 9 -47 3 -88 5 -92 3 -5 -2 -8 -62 -8
-133 l0 -130 37 3 c33 3 38 7 52 47 51 141 217 215 367 164 63 -21 136 -95
161 -164 11 -28 22 -50 26 -50 4 1 41 1 82 1 l74 0 10 38 c15 52 77 126 135
158 58 32 150 42 213 22 54 -16 142 -80 170 -122 11 -18 24 -46 28 -64 7 -33
17 -37 64 -23 23 6 24 10 22 81 -3 81 -20 135 -21 65 0 -54 -11 -115 -20 -115
-4 0 -17 22 -28 49 -11 27 -39 70 -62 95 l-43 46 29 0 c16 0 47 5 69 12 l40
11 -55 13 c-42 10 -186 13 -625 12 -313 -1 -545 -4 -515 -7z m548 -38 l142 -6
-32 -24 c-31 -23 -63 -65 -101 -133 -12 -22 -22 -30 -33 -26 -9 3 -26 6 -39 6
-17 0 -26 8 -34 30 -16 47 -48 87 -105 132 l-51 41 55 -7 c30 -3 119 -9 198
-13z"/>
<path d="M2244 502 c-44 -14 -124 -77 -124 -97 0 -12 -6 -27 -12 -33 -9 -9
-13 -46 -13 -110 0 -84 3 -102 23 -134 50 -81 162 -134 262 -125 68 6 107 24
155 74 51 52 68 96 69 178 0 58 -4 79 -26 122 -30 56 -57 78 -135 111 -52 22
-150 29 -199 14z m158 -150 c37 -22 62 -75 54 -117 -10 -52 -56 -95 -101 -95
-32 0 -45 7 -81 45 -57 58 -60 86 -17 143 40 54 82 60 145 24z"/>
<path d="M2990 497 c-76 -31 -86 -36 -117 -69 -42 -45 -63 -99 -63 -166 0 -85
18 -131 75 -187 78 -79 169 -95 277 -51 125 51 174 134 158 266 -13 107 -30
140 -90 178 -48 31 -64 36 -130 39 -48 2 -88 -2 -110 -10z m116 -127 c35 -13
84 -75 84 -107 0 -12 -8 -31 -18 -41 -10 -10 -21 -26 -25 -35 -11 -28 -78 -55
-114 -45 -62 16 -95 122 -57 177 12 17 75 55 100 61 1 0 14 -5 30 -10z"/>
<path d="M3884 502 c-12 -4 -44 -22 -71 -41 -44 -30 -51 -41 -67 -95 -14 -45
-17 -80 -13 -139 5 -71 8 -82 41 -122 55 -66 132 -100 226 -100 83 1 117 14
171 67 77 78 97 210 44 306 -32 59 -55 78 -132 110 -52 22 -150 29 -199 14z
m158 -150 c63 -36 69 -125 13 -186 -16 -17 -34 -26 -55 -26 -32 0 -90 27 -90
42 0 4 -10 16 -22 28 -33 30 -29 82 8 121 48 51 84 56 146 21z"/>
<path d="M4640 501 c-135 -45 -193 -118 -193 -241 0 -194 175 -310 355 -236
112 46 147 93 155 207 4 58 1 91 -13 135 -20 66 -21 68 -84 108 -38 25 -57 30
-120 33 -41 1 -86 -1 -100 -6z m150 -167 c42 -41 47 -92 12 -124 -12 -12 -22
-25 -22 -30 0 -15 -56 -40 -90 -40 -54 0 -105 79 -93 144 7 33 41 67 85 82 43
16 66 9 108 -32z"/>
<path d="M5485 503 c-11 -3 -42 -20 -70 -38 -40 -26 -53 -40 -64 -76 -43 -141
-25 -259 50 -317 77 -61 182 -85 265 -62 61 17 145 98 162 156 16 56 15 144
-3 187 -22 54 -71 104 -124 128 -46 21 -173 34 -216 22z m138 -142 c64 -25 87
-112 46 -177 -28 -46 -71 -57 -122 -32 -21 10 -41 26 -44 35 -4 9 -15 25 -26
36 -23 23 -18 65 14 105 39 51 67 58 132 33z"/>
<path d="M6195 484 c-33 -14 -69 -33 -79 -43 -31 -27 -76 -132 -76 -177 0 -96
60 -198 141 -240 110 -57 302 3 353 111 26 53 32 160 12 215 -9 25 -16 52 -16
60 0 8 -26 33 -57 54 -53 37 -62 40 -137 43 -70 3 -89 0 -141 -23z m193 -151
c47 -53 44 -91 -12 -148 -36 -38 -49 -45 -81 -45 -28 0 -44 7 -66 31 -60 64
-45 149 35 189 52 26 82 20 124 -27z"/>
</g>
</svg>
