<?xml version="1.0" standalone="no"?>
<!DOCTYPE svg PUBLIC "-//W3C//DTD SVG 20010904//EN"
 "http://www.w3.org/TR/2001/REC-SVG-20010904/DTD/svg10.dtd">
<svg version="1.0" xmlns="http://www.w3.org/2000/svg"
 width="439.000000pt" height="413.000000pt" viewBox="0 0 439.000000 413.000000"
 preserveAspectRatio="xMidYMid meet">
<metadata>
Created by potrace 1.16, written by Peter Selinger 2001-2019
</metadata>
<g transform="translate(0.000000,413.000000) scale(0.100000,-0.100000)"
fill="#000000" stroke="none">
<path d="M2134 4091 c-112 -56 -186 -115 -243 -193 -114 -157 -158 -381 -108
-550 l13 -43 -203 -310 c-112 -170 -207 -310 -211 -310 -8 0 -83 84 -200 224
-35 42 -96 110 -135 152 -40 42 -90 100 -112 129 -22 30 -78 94 -125 144 -47
50 -140 157 -207 237 l-121 145 5 60 5 60 -117 132 -117 132 -47 -39 c-25 -22
-73 -67 -106 -102 l-60 -62 63 52 c35 28 67 51 72 51 5 0 22 11 38 25 l29 24
41 -47 c81 -97 142 -182 142 -199 0 -9 -12 -29 -27 -45 l-27 -28 23 -24 c13
-14 21 -29 17 -34 -7 -12 42 -58 71 -67 13 -3 39 -27 60 -53 20 -26 60 -72 88
-102 65 -72 172 -201 211 -256 16 -23 41 -54 55 -68 32 -32 173 -236 167 -242
-3 -2 -61 60 -129 139 -68 78 -138 156 -155 172 -17 17 -92 100 -166 185 -116
132 -275 297 -227 235 54 -69 170 -208 214 -255 28 -30 77 -89 110 -130 32
-41 109 -128 169 -193 112 -119 160 -181 91 -117 -60 56 -23 3 56 -80 39 -41
52 -53 30 -26 -23 27 -41 54 -41 60 0 5 6 4 13 -4 44 -49 171 -195 217 -249
53 -62 54 -64 39 -90 -9 -14 -92 -145 -185 -291 -245 -382 -359 -566 -337
-545 5 6 40 55 77 110 38 55 86 123 107 150 22 28 63 86 90 130 28 44 56 85
63 90 7 6 38 48 69 95 31 47 75 112 99 144 24 33 47 67 53 78 12 21 24 19 39
-7 6 -11 21 -28 34 -38 13 -11 21 -22 18 -25 -3 -3 18 -33 48 -66 29 -34 56
-71 60 -83 4 -12 25 -41 46 -65 22 -24 40 -47 40 -51 0 -11 -67 -115 -105
-162 -18 -22 -43 -60 -55 -85 -13 -25 -77 -127 -144 -227 -67 -100 -147 -223
-178 -272 l-56 -90 19 -52 c11 -29 23 -89 26 -133 14 -214 -76 -384 -274 -510
-72 -46 -103 -56 -103 -33 0 17 41 136 84 241 66 165 62 187 -52 269 -91 64
-193 124 -226 133 -40 10 -78 -20 -230 -178 -137 -143 -148 -152 -167 -140
-18 11 -20 11 -17 0 3 -7 15 -14 27 -16 17 -3 58 32 181 152 121 119 164 156
184 156 52 0 265 -132 309 -192 20 -27 20 -27 0 -85 -12 -32 -48 -123 -82
-203 -62 -150 -71 -187 -46 -196 54 -21 290 146 357 254 11 18 23 31 25 28 7
-6 -32 -62 -76 -110 -28 -29 -30 -35 -11 -23 46 30 115 136 134 207 l7 25 -16
-25 -15 -25 6 30 c4 17 11 41 16 55 5 14 12 66 15 115 5 72 1 107 -15 173
l-21 83 167 251 c92 138 174 263 182 277 49 85 61 102 68 97 5 -3 16 10 25 29
9 18 33 57 53 85 34 48 39 51 51 34 12 -16 14 -16 31 -1 34 31 46 10 15 -26
-18 -19 -17 -20 7 -7 14 7 46 29 72 48 l47 36 -44 51 -44 52 49 62 c28 33 50
67 50 74 0 7 18 37 40 67 22 29 42 61 45 72 4 10 10 18 15 18 10 0 100 131
100 146 0 5 11 23 25 39 32 39 34 12 3 -42 l-21 -38 30 30 c16 17 67 86 113
155 45 69 86 128 89 132 4 4 29 12 57 17 78 15 154 47 229 96 86 57 99 69 138
125 17 25 45 66 63 92 50 74 84 187 90 303 5 90 3 103 -16 134 -19 30 -25 33
-56 28 -44 -7 -112 -64 -227 -190 -117 -127 -119 -128 -199 -83 -36 20 -74 44
-85 54 -12 9 -42 32 -67 49 -25 18 -46 40 -46 50 0 17 109 333 135 391 21 45
19 68 -7 86 -35 25 -69 19 -154 -23z m96 -50 c0 -10 -34 -92 -77 -182 -58
-125 -77 -177 -81 -219 -4 -53 -2 -57 38 -102 23 -27 47 -48 53 -48 7 0 61
-32 121 -70 159 -101 181 -98 310 46 44 49 103 111 130 138 l51 49 3 -46 c6
-88 -48 -250 -109 -327 -83 -105 -224 -184 -365 -203 l-82 -11 -86 -126 c-46
-69 -142 -208 -211 -310 -70 -102 -147 -216 -172 -255 -25 -38 -47 -72 -49
-74 -6 -7 -72 53 -79 72 -4 9 -19 23 -33 31 -15 8 -43 36 -62 63 -19 26 -54
69 -79 95 l-44 48 29 41 c16 22 43 61 61 86 18 26 36 49 40 52 5 3 21 26 37
51 16 25 43 59 61 76 30 30 71 103 96 172 7 19 31 62 53 95 64 97 75 119 66
142 -51 134 -42 300 22 430 63 126 130 192 273 267 82 43 85 44 85 19z"/>
<path d="M2094 2305 c-17 -13 -16 -14 14 -4 24 8 40 8 60 0 28 -12 68 -65 73
-97 4 -23 -29 -94 -50 -110 -12 -10 -11 -17 9 -50 13 -21 27 -41 30 -44 14
-11 90 -120 90 -128 0 -5 7 -15 15 -22 9 -7 23 -28 31 -46 10 -20 26 -37 40
-40 12 -3 42 -27 66 -54 113 -125 232 -267 276 -329 17 -25 38 -51 46 -57 8
-5 49 -62 92 -125 42 -62 87 -124 100 -135 26 -25 42 -104 28 -139 -5 -12 -74
-77 -154 -143 -210 -176 -217 -176 -356 1 -53 67 -127 154 -163 193 -65 71
-110 122 -213 241 -29 33 -138 156 -242 272 l-188 211 -30 -25 c-58 -49 -134
-41 -163 16 -29 55 -15 84 98 198 l102 104 -102 -82 c-55 -45 -107 -89 -115
-98 -7 -9 -13 -41 -13 -75 0 -56 2 -62 37 -94 45 -41 101 -46 153 -14 l33 20
71 -76 c39 -42 69 -79 66 -82 -2 -3 -14 7 -26 22 -12 15 -24 25 -26 22 -3 -3
30 -46 73 -96 79 -92 113 -123 52 -49 -125 153 -38 71 125 -119 73 -84 133
-159 135 -167 2 -8 7 -15 12 -15 11 0 124 -150 147 -193 9 -18 32 -47 52 -65
20 -19 35 -37 34 -42 -1 -4 16 -26 38 -48 24 -25 36 -43 29 -47 -6 -4 -17 -1
-25 5 -24 20 -17 -4 14 -47 51 -71 131 -111 199 -99 48 7 121 47 128 69 3 10
31 36 62 59 31 23 74 58 95 77 20 19 56 44 80 56 75 36 109 144 72 232 -18 42
-59 95 -160 204 -38 42 -99 113 -134 158 -35 44 -67 81 -71 81 -4 0 -49 50
-101 112 -52 61 -163 192 -248 291 l-154 180 19 31 c23 39 23 115 0 150 -37
58 -119 83 -162 51z"/>
<path d="M3530 1528 c-17 -29 -49 -90 -70 -135 -22 -45 -44 -84 -49 -88 -12
-7 -78 -123 -117 -206 -17 -36 -67 -126 -111 -200 -197 -330 -453 -804 -453
-837 0 -3 16 21 36 54 19 32 44 68 54 79 10 11 25 34 33 50 8 17 27 44 41 60
14 17 33 46 42 65 10 19 26 47 38 61 12 14 33 46 48 70 42 67 92 134 103 137
17 5 44 66 39 85 -3 10 13 49 40 96 25 43 46 80 46 84 0 8 113 197 160 267 20
30 39 63 43 73 11 29 98 147 108 147 5 0 12 -8 16 -17 3 -10 28 -49 53 -88 63
-93 210 -350 350 -610 126 -236 173 -317 206 -357 12 -15 34 -52 48 -82 14
-30 31 -58 36 -61 6 -4 19 -23 30 -44 l19 -38 -67 -7 c-37 -3 -125 -6 -197 -6
-118 0 -478 -12 -763 -26 -62 -4 -111 -8 -108 -11 6 -7 582 -6 776 1 74 2 115
1 90 -2 -73 -12 -11 -18 110 -11 104 5 104 5 26 7 -44 1 -77 4 -75 6 2 2 62 6
133 10 71 3 132 8 134 11 3 2 -10 26 -27 53 -17 27 -31 53 -31 59 0 5 -9 18
-20 28 -11 10 -17 21 -15 25 3 5 -10 35 -29 68 -18 33 -41 82 -50 110 -10 28
-24 53 -32 56 -7 3 -14 12 -14 19 0 8 -6 20 -14 26 -7 6 -16 25 -20 41 -3 16
-15 38 -26 47 -19 17 -27 43 -13 43 3 0 15 -7 24 -16 48 -43 -21 93 -118 234
-23 35 -43 67 -43 72 0 5 -11 17 -24 27 -13 11 -38 48 -56 84 -18 35 -43 79
-57 97 -14 19 -31 55 -38 82 -7 27 -46 102 -88 167 -41 66 -82 136 -92 156 -9
20 -21 37 -26 37 -5 0 -22 -24 -39 -52z"/>
<path d="M3541 1016 c-6 -7 -8 -28 -5 -47 4 -26 3 -30 -5 -19 -7 10 -11 11
-11 3 0 -7 -6 -13 -14 -13 -10 0 -17 -15 -20 -42 -3 -24 -8 -64 -11 -90 -4
-28 -2 -49 5 -53 5 -3 9 -27 9 -53 l-2 -47 -7 40 c-6 35 -7 31 -9 -31 -1 -57
4 -80 22 -115 14 -27 32 -45 44 -47 12 -2 23 -12 26 -23 4 -15 12 -20 29 -17
13 2 29 -4 35 -12 25 -31 31 9 11 78 -23 81 -19 225 10 365 10 48 16 90 12 92
-3 2 -29 13 -57 24 -42 16 -53 18 -62 7z"/>
<path d="M3515 374 c-39 -20 -65 -61 -30 -48 11 5 13 -1 8 -30 -5 -34 -4 -36
21 -36 30 0 34 -14 9 -29 -33 -18 -4 -23 62 -11 68 13 75 19 50 40 -11 9 -12
16 -5 25 13 16 -17 85 -37 85 -8 0 -11 5 -8 10 10 15 -36 12 -70 -6z"/>
</g>
</svg>
